<svg width="112" height="112" viewBox="0 0 112 112" fill="none" xmlns="http://www.w3.org/2000/svg">
	<rect width="112" height="112" fill="black"/>
	<g clip-path="url(#clip0_865_1075)">
		<path
			d="M70.601 29.4437C70.1424 30.834 68.9858 31.3521 67.6722 30.7514C65.6545 29.8304 63.5757 29.0995 61.3922 28.6866C61.2937 28.6678 61.2041 28.6052 61.1092 28.5627C60.9298 28.4438 60.7005 28.5977 60.526 28.4526C60.1733 28.4801 59.8306 28.4388 59.499 28.3137C59.271 28.1873 58.9994 28.3512 58.7749 28.206L58.1295 28.1873C57.8465 28.0621 57.5312 28.2236 57.2496 28.0859C56.9205 28.0771 56.5927 28.0684 56.2638 28.0609C55.9347 27.987 55.6045 27.987 55.2754 28.0609C54.9739 28.0684 54.6723 28.0759 54.3706 28.0834C54.0204 28.2336 53.6379 28.0546 53.2852 28.1873C53.1119 28.1935 52.9374 28.1998 52.7641 28.206C52.5386 28.3512 52.267 28.1873 52.0388 28.3137C51.9516 28.3212 51.8643 28.3299 51.7759 28.3374C51.5926 28.4663 51.3608 28.3149 51.1777 28.4438C49.6635 28.7567 48.1466 29.057 46.681 29.5738C44.7443 30.2559 42.9223 31.1681 41.1601 32.2206C38.0494 34.0802 35.492 36.5492 33.3509 39.4437C31.7307 41.6337 30.447 44.0277 29.5385 46.6181C29.0362 48.0509 28.6798 49.5164 28.3408 50.9893C28.2286 51.1695 28.3782 51.3973 28.2336 51.57C28.1863 51.998 28.1389 52.4247 28.0915 52.8527C27.9756 53.0779 28.1289 53.342 27.9906 53.5635C27.9831 53.8263 27.9756 54.0891 27.9669 54.3531C27.866 55.2291 27.9507 56.1088 27.9233 56.9861C27.942 57.2289 27.8809 57.4767 27.9669 57.7157C27.9756 58.0148 27.9844 58.3139 27.9931 58.6129C28.1215 58.7981 27.9806 59.0296 28.094 59.2173C28.3221 61.3899 28.8094 63.5047 29.531 65.562C30.5467 68.4591 32.0086 71.1133 33.8992 73.5248C34.47 74.2532 35.1542 74.8951 35.6901 75.646C36.3519 76.5745 36.1874 77.5995 35.386 78.2501C34.4264 79.0285 33.4119 79.0111 32.5781 78.1488C30.7648 76.2755 29.2493 74.1756 27.9607 71.9092C26.267 68.9309 25.1279 65.7397 24.4113 62.3947C24.2567 61.6752 24.2331 60.928 24 60.2223V51.9655C24.091 51.8791 24.0474 51.7501 24.0972 51.65C24.1433 51.4473 24.1172 51.2408 24.1246 51.0356C24.1184 48.9783 24.764 47.0636 25.427 45.1603C26.7705 41.3021 28.8131 37.8381 31.5014 34.7835C33.9453 32.0053 36.7669 29.6715 40.0048 27.8494C43.2052 26.0486 46.6213 24.9036 50.2155 24.2453C50.9919 24.1026 51.7796 24.1214 52.5635 24.0689C52.7617 24.0689 52.961 24.0689 53.1593 24.0689C53.502 24.0513 53.8422 23.9763 54.1887 24.0075C54.4766 24.0075 54.7645 24.0075 55.0523 24.0075C55.536 24.0075 56.0194 24.0075 56.5031 24.0075C56.7996 24.0338 57.1025 23.9512 57.3941 24.0601C57.687 24.01 57.9698 24.2578 58.2665 24.0864C58.5021 24.2065 58.7738 24.0526 59.0068 24.1865C60.7728 24.4155 62.5213 24.7359 64.2424 25.1964C66.0296 25.6744 67.7743 26.2764 69.4245 27.1173C69.9704 27.3951 70.4763 27.7768 70.5997 28.4588C70.6857 28.7842 70.6857 29.1108 70.5997 29.4362L70.601 29.4437Z"
			fill="#FFD900"/>
		<path
			d="M51.9076 88.0001C51.14 87.6785 50.3062 87.6847 49.5073 87.5209C47.0807 87.0227 44.739 86.2782 42.4895 85.2407C41.3031 84.6939 40.8331 83.5489 41.3304 82.4689C41.8215 81.4014 42.9855 81.0359 44.1857 81.5717C58.1814 87.8225 74.2012 82.1522 80.8301 68.3391C85.4239 58.7683 84.5801 49.3565 78.8921 40.4213C77.9549 38.9497 78.588 37.3715 79.8767 37.0425C80.7379 36.8235 81.558 37.12 82.0951 37.9034C84.6574 41.6414 86.3236 45.7523 87.1637 50.2061C87.4379 51.6602 87.6073 53.1269 87.6772 54.6049C87.8155 55.0529 87.6223 55.5283 87.7856 55.9751V56.3506C87.6473 56.741 87.7593 57.1453 87.7232 57.5406C87.8429 62.8141 86.2726 67.6209 83.7202 72.1571C82.0739 75.083 80.0026 77.6771 77.5411 79.9385C73.4708 83.6802 68.7386 86.1981 63.366 87.5109C62.1296 87.8137 60.8684 87.7886 59.6296 87.9977H51.9051L51.9076 88.0001Z"
			fill="#FFD900"/>
		<path
			d="M55.8324 30.7639C66.4134 30.7639 75.9573 37.4877 79.4943 47.424C79.8033 48.2912 79.7273 49.0808 79.0805 49.7367C78.5122 50.3123 77.7957 50.48 77.0154 50.2147C76.3375 49.9856 75.9462 49.4901 75.6993 48.8219C73.9509 44.0789 70.9149 40.3948 66.6027 37.7868C54.2969 30.3434 38.0243 37.4552 35.0793 51.5512C34.5584 54.0427 34.4337 56.5405 34.7977 59.0621C34.9696 60.256 34.2568 61.2596 33.1289 61.4461C32.0184 61.63 30.994 60.888 30.8295 59.6891C29.9995 53.6272 31.09 47.9233 34.3552 42.7549C39.03 35.3541 45.8098 31.3984 54.5262 30.8102C54.7532 30.7952 54.9812 30.7752 55.208 30.7664C55.4149 30.7589 55.6231 30.7651 55.8312 30.7651L55.8324 30.7639Z"
			fill="#FFD900"/>
		<path
			d="M58.7521 77.1328C62.5507 76.6197 65.9294 75.1105 68.9142 72.7253C72.9348 69.5117 75.4485 65.3469 76.5178 60.305C76.6636 59.6192 76.7347 58.9172 76.8393 58.2214C76.959 57.9949 76.8044 57.7284 76.9416 57.5044C76.949 57.2853 76.9564 57.0664 76.964 56.8461C77.0985 56.3868 76.9141 55.9025 77.0686 55.4445C77.2767 54.0404 79.1176 53.5836 80.1308 54.372C80.4996 54.6586 80.8449 55.0002 80.9396 55.5021C81.0343 56.2392 81.0319 56.9762 80.9396 57.7133L80.9159 58.3602C80.7963 58.5893 80.9509 58.8584 80.8137 59.0849C80.8074 59.1774 80.8012 59.2701 80.795 59.364C80.6741 59.5554 80.8225 59.7932 80.6891 59.9833C80.5022 61.7904 79.9588 63.5073 79.3331 65.1956C78.366 67.8034 76.9515 70.1536 75.183 72.2948C73.7112 74.0744 71.9938 75.566 70.1244 76.915C67.0461 79.135 63.5851 80.3664 59.9099 81.0897C59.7292 81.1248 59.5385 81.1122 59.3527 81.121C59.1322 81.27 58.8642 81.1036 58.6399 81.23L58.2747 81.2537C58.0354 81.385 57.76 81.2361 57.5194 81.3525C56.475 81.3876 55.4307 81.5052 54.3863 81.3525C54.0137 81.2224 53.6136 81.3976 53.2423 81.25C53.125 81.2424 53.0079 81.2349 52.8908 81.2274C52.664 81.106 52.396 81.2674 52.1729 81.121C50.4481 81.0021 48.8067 80.5129 47.194 79.9334C43.4452 78.5869 40.2049 76.4345 37.4643 73.5474C35.0951 71.0521 33.2955 68.1789 32.1053 64.9377C31.6118 63.5937 32.1302 62.5562 33.4725 62.0996C33.8015 62.0094 34.1318 62.0094 34.4608 62.0996C35.7432 62.5362 35.9825 63.7564 36.4536 64.7938C37.5117 67.1277 38.8764 69.2338 40.7059 71.0509C41.982 72.3186 43.3368 73.4698 44.8872 74.3621C47.0843 75.6261 49.3888 76.6434 51.9274 77.0101C52.1068 77.1228 52.3337 76.9726 52.5057 77.1177C52.5979 77.1216 52.6902 77.1253 52.7823 77.129C52.978 77.2504 53.2185 77.104 53.4129 77.2341C53.6198 77.2066 53.8205 77.3568 54.0312 77.258C54.511 77.3905 55.012 77.2078 55.4905 77.3605C55.6762 77.3605 55.862 77.3605 56.0476 77.3605C56.4951 77.2617 56.9425 77.2766 57.3912 77.3542C57.6342 77.3154 57.8772 77.2754 58.1215 77.2366C58.3146 77.1028 58.5552 77.2478 58.7508 77.1316L58.7521 77.1328Z"
			fill="#FFD900"/>
		<path
			d="M70.1093 53.9777C69.7841 52.4146 69.4002 50.8717 68.6388 49.4525C66.429 45.3341 63.0628 42.7688 58.4828 41.834C58.322 41.8014 58.1662 41.7476 58.0079 41.7025C57.8235 41.5786 57.5905 41.7301 57.4084 41.5949C57.1916 41.5886 56.9735 41.5812 56.7567 41.5749C56.0575 41.4985 55.3583 41.4985 54.6579 41.5749C54.4823 41.5824 54.3065 41.5886 54.1308 41.5961C53.9489 41.7313 53.7158 41.5798 53.53 41.7038C51.0811 42.0492 48.935 43.1166 46.9485 44.5345C46.45 44.8898 46.0386 45.3666 45.5838 45.7846C45.2946 46.05 45.0167 46.3416 44.583 46.3528C44.239 46.4417 43.8938 46.4429 43.5499 46.3516C42.7709 46.2464 42.3135 45.7133 42.1278 45.0376C41.9397 44.3556 41.9745 43.6334 42.5342 43.0553C45.0553 40.4473 48.0863 38.7554 51.6183 37.9784C52.4208 37.8018 53.2421 37.713 54.0535 37.5841C54.3389 37.4653 54.638 37.5553 54.9284 37.5265C55.488 37.5265 56.0488 37.5265 56.6083 37.5265C56.9025 37.5541 57.204 37.4653 57.4933 37.5829C59.1259 37.8081 60.7336 38.1322 62.2852 38.7066C64.4985 39.525 66.4415 40.7728 68.1838 42.3582C70.1292 44.1278 71.6609 46.2089 72.7377 48.6016C73.4169 50.1133 73.9068 51.7001 74.0813 53.3657C74.2271 53.5897 74.0663 53.8601 74.1871 54.0878C74.1959 54.2129 74.2033 54.3381 74.2121 54.4632C74.3243 54.8036 74.2408 55.1553 74.2669 55.5006C74.232 56.2428 74.3392 56.9873 74.2058 57.7269C74.2009 57.8545 74.1959 57.9822 74.1896 58.1098C74.0626 58.335 74.2283 58.6041 74.0813 58.8269C73.8631 60.6802 73.3135 62.4348 72.466 64.0878C72.248 64.5133 71.8204 64.7774 71.3232 64.8625C70.993 64.9589 70.6626 64.9513 70.3312 64.8674C69.4962 64.6922 68.9216 64.0716 68.8369 63.2506C68.7559 63.0304 68.7559 62.8089 68.8369 62.5886C68.8668 61.9266 69.2993 61.4036 69.4588 60.7878C69.6793 59.932 69.8924 59.0734 70.1081 58.2162C70.2326 57.9885 70.0706 57.7181 70.2141 57.4929C70.2203 57.3614 70.2277 57.2301 70.234 57.0986C70.3237 56.8822 70.2601 56.6557 70.2789 56.4342C70.2789 56.1764 70.2789 55.9186 70.2789 55.6608C70.2613 55.4393 70.3199 55.2128 70.2377 54.995C70.2289 54.8949 70.2215 54.7936 70.2127 54.6934C70.0706 54.472 70.2352 54.2029 70.1056 53.9802L70.1093 53.9777Z"
			fill="#FFD900"/>
		<path
			d="M56.4513 74.6823C46.4711 74.6823 38.6843 67.7969 37.4317 58.4464C36.9769 55.0451 37.4442 51.7664 38.8214 48.6265C39.3673 47.3813 40.7456 46.9709 41.82 47.698C42.6375 48.2511 42.9254 49.2485 42.5042 50.2421C41.6218 52.3244 41.223 54.4856 41.3091 56.752C41.557 63.3469 46.572 69.1936 53.0402 70.3661C57.6041 71.1933 61.6646 70.0808 65.2215 67.0975C66.5723 65.9636 68.3894 66.5343 68.6761 68.1899C68.8332 69.096 68.387 69.7392 67.7277 70.2923C65.4133 72.2357 62.7949 73.5597 59.8524 74.2331C58.5127 74.5396 57.1542 74.6785 56.4513 74.6823Z"
			fill="#FFD900"/>
		<path
			d="M50.5137 56.1491C50.5137 53.0494 52.9464 50.5891 56.0247 50.574C59.123 50.559 61.6044 53.0368 61.6056 56.1478C61.6056 59.2576 59.1243 61.7391 56.0247 61.7304C52.9602 61.7216 50.5125 59.2439 50.5137 56.1491Z"
			fill="#FFD900"/>
	</g>
	<defs>
		<clipPath id="clip0_865_1075">
			<rect width="64" height="64" fill="white" transform="translate(24 24)"/>
		</clipPath>
	</defs>
</svg>
